<svg width="18" height="18" viewBox="0 0 18 18" fill="none" xmlns="http://www.w3.org/2000/svg">
<path fill-rule="evenodd" clip-rule="evenodd" d="M6.99293 11.6723C10.0671 11.6723 12.6946 12.1382 12.6946 13.999C12.6946 15.8598 10.0846 16.339 6.99293 16.339C3.91793 16.339 1.29126 15.8773 1.29126 14.0157C1.29126 12.154 3.90043 11.6723 6.99293 11.6723Z" stroke="#130F26" stroke-width="1.5" stroke-linecap="round" stroke-linejoin="round"/>
<path fill-rule="evenodd" clip-rule="evenodd" d="M6.99289 9.01649C4.97456 9.01649 3.33789 7.38066 3.33789 5.36233C3.33789 3.34399 4.97456 1.70816 6.99289 1.70816C9.01039 1.70816 10.6471 3.34399 10.6471 5.36233C10.6546 7.37316 9.02956 9.00899 7.01872 9.01649H6.99289Z" stroke="#130F26" stroke-width="1.5" stroke-linecap="round" stroke-linejoin="round"/>
<path d="M12.7358 8.06799C14.07 7.88049 15.0975 6.73549 15.1 5.34966C15.1 3.98382 14.1042 2.85049 12.7983 2.63632" stroke="#130F26" stroke-width="1.5" stroke-linecap="round" stroke-linejoin="round"/>
<path d="M14.4961 11.2768C15.7886 11.4693 16.6911 11.9227 16.6911 12.856C16.6911 13.4985 16.2661 13.9152 15.5794 14.176" stroke="#130F26" stroke-width="1.5" stroke-linecap="round" stroke-linejoin="round"/>
</svg>
