<svg width="17" height="18" viewBox="0 0 17 18" fill="none" xmlns="http://www.w3.org/2000/svg">
<path fill-rule="evenodd" clip-rule="evenodd" d="M11.7615 16.9167H4.80495C2.24965 16.9167 0.289314 15.9937 0.84614 12.279L1.4945 7.24466C1.83775 5.39111 3.02005 4.68173 4.05743 4.68173H12.5395C13.5921 4.68173 14.7058 5.44451 15.1024 7.24466L15.7508 12.279C16.2237 15.5742 14.3168 16.9167 11.7615 16.9167Z" stroke="#130F26" stroke-width="1.5" stroke-linecap="round" stroke-linejoin="round"/>
<path d="M11.8758 4.49867C11.8758 2.51027 10.2639 0.898363 8.27547 0.898363V0.898363C7.31797 0.894306 6.3983 1.27183 5.71981 1.94746C5.04131 2.62309 4.6599 3.54116 4.65991 4.49867H4.65991" stroke="#130F26" stroke-width="1.5" stroke-linecap="round" stroke-linejoin="round"/>
<path d="M10.7469 8.25153H10.7088" stroke="#130F26" stroke-width="1.5" stroke-linecap="round" stroke-linejoin="round"/>
<path d="M5.88801 8.25153H5.84987" stroke="#130F26" stroke-width="1.5" stroke-linecap="round" stroke-linejoin="round"/>
</svg>
