<svg width="20" height="20" viewBox="0 0 20 20" fill="none" xmlns="http://www.w3.org/2000/svg">
<path d="M13.3333 16.6667H6.66667C6.00363 16.6667 5.36774 16.4033 4.8989 15.9344C4.43006 15.4656 4.16667 14.8297 4.16667 14.1667V5.83332C4.16667 5.61231 4.07887 5.40035 3.92259 5.24407C3.76631 5.08779 3.55435 4.99999 3.33333 4.99999C3.11232 4.99999 2.90036 5.08779 2.74408 5.24407C2.5878 5.40035 2.5 5.61231 2.5 5.83332V14.1667C2.5 15.2717 2.93899 16.3315 3.72039 17.1129C4.50179 17.8943 5.5616 18.3333 6.66667 18.3333H13.3333C13.5543 18.3333 13.7663 18.2455 13.9226 18.0892C14.0789 17.933 14.1667 17.721 14.1667 17.5C14.1667 17.279 14.0789 17.067 13.9226 16.9107C13.7663 16.7545 13.5543 16.6667 13.3333 16.6667ZM17.5 7.44999C17.4913 7.37344 17.4746 7.29802 17.45 7.22499V7.14999C17.4099 7.06431 17.3565 6.98554 17.2917 6.91666L12.2917 1.91666C12.2228 1.85184 12.144 1.79839 12.0583 1.75832H11.9833L11.7167 1.66666H8.33333C7.67029 1.66666 7.03441 1.93005 6.56557 2.39889C6.09673 2.86773 5.83333 3.50362 5.83333 4.16666V12.5C5.83333 13.163 6.09673 13.7989 6.56557 14.2678C7.03441 14.7366 7.67029 15 8.33333 15H15C15.663 15 16.2989 14.7366 16.7678 14.2678C17.2366 13.7989 17.5 13.163 17.5 12.5V7.49999C17.5 7.49999 17.5 7.49999 17.5 7.44999ZM12.5 4.50832L14.6583 6.66666H13.3333C13.1123 6.66666 12.9004 6.57886 12.7441 6.42258C12.5878 6.2663 12.5 6.05434 12.5 5.83332V4.50832ZM15.8333 12.5C15.8333 12.721 15.7455 12.933 15.5893 13.0892C15.433 13.2455 15.221 13.3333 15 13.3333H8.33333C8.11232 13.3333 7.90036 13.2455 7.74408 13.0892C7.5878 12.933 7.5 12.721 7.5 12.5V4.16666C7.5 3.94564 7.5878 3.73368 7.74408 3.5774C7.90036 3.42112 8.11232 3.33332 8.33333 3.33332H10.8333V5.83332C10.8333 6.49636 11.0967 7.13225 11.5656 7.60109C12.0344 8.06993 12.6703 8.33332 13.3333 8.33332H15.8333V12.5Z" fill="#5570F1"/>
</svg>
